<svg xmlns="http://www.w3.org/2000/svg" version="1.1" xmlns:xlink="http://www.w3.org/1999/xlink" width="1000" height="1000"><metadata><rdf:RDF xmlns:rdf="http://www.w3.org/1999/02/22-rdf-syntax-ns#" xmlns:dc="http://purl.org/dc/elements/1.1/"><rdf:Description><dc:creator>RealFaviconGenerator</dc:creator><dc:source>https://realfavicongenerator.net</dc:source></rdf:Description></rdf:RDF></metadata><style>
    #light-icon {
      display: inline;
    }
    #dark-icon {
      display: none;
    }

    @media (prefers-color-scheme: dark) {
      #light-icon {
        display: none;
      }
      #dark-icon {
        display: inline;
      }
    }
  </style><g id="light-icon"><svg xmlns="http://www.w3.org/2000/svg" version="1.1" xmlns:xlink="http://www.w3.org/1999/xlink" width="1000" height="1000"><g><g transform="matrix(41.666666666666664,0,0,41.666666666666664,0,0)"><svg xmlns="http://www.w3.org/2000/svg" width="24" height="24" viewBox="0 0 24 24" fill="none"><g clip-path="url(#clip0_10_46)">
<path d="M14.133 1.50204C14.2651 1.27213 14.4831 1.1041 14.7391 1.0349C14.9951 0.9657 15.268 1.001 15.498 1.13304C16.5881 1.75957 17.5351 2.60721 18.2781 3.62148C19.0211 4.63576 19.5438 5.79424 19.8125 7.02251C20.0811 8.25078 20.0899 9.52168 19.8383 10.7535C19.5866 11.9854 19.08 13.151 18.3511 14.1755C17.6221 15.1999 16.687 16.0606 15.6057 16.7021C14.5243 17.3437 13.3208 17.7519 12.0723 17.9007C10.8238 18.0495 9.55801 17.9354 8.35622 17.5659C7.15443 17.1964 6.04323 16.5795 5.094 15.755C4.99485 15.6689 4.91364 15.5641 4.85501 15.4465C4.79637 15.329 4.76146 15.2011 4.75227 15.07C4.74308 14.939 4.75978 14.8075 4.80143 14.6829C4.84308 14.5583 4.90885 14.4432 4.995 14.344C5.08114 14.2449 5.18598 14.1637 5.30351 14.105C5.42104 14.0464 5.54897 14.0115 5.67999 14.0023C5.81102 13.9931 5.94257 14.0098 6.06714 14.0515C6.1917 14.0931 6.30685 14.1589 6.406 14.245C7.14464 14.8866 8.00931 15.3666 8.94447 15.6541C9.87962 15.9416 10.8646 16.0304 11.8361 15.9146C12.8076 15.7989 13.7441 15.4812 14.5855 14.982C15.427 14.4828 16.1546 13.8131 16.7219 13.0159C17.2891 12.2188 17.6833 11.3118 17.8791 10.3532C18.075 9.39465 18.0682 8.40573 17.8591 7.44996C17.6501 6.49419 17.2434 5.59272 16.6652 4.80346C16.0871 4.01419 15.3502 3.3546 14.502 2.86704C14.2721 2.73493 14.1041 2.51692 14.0349 2.26094C13.9657 2.00497 14.001 1.73199 14.133 1.50204Z" fill="#2B7FFF"></path>
<path d="M11 16C11.2449 16 11.4813 16.09 11.6644 16.2527C11.8474 16.4155 11.9643 16.6397 11.993 16.883L12 17V21C11.9997 21.2549 11.9021 21.5 11.7272 21.6854C11.5522 21.8707 11.313 21.9822 11.0586 21.9972C10.8042 22.0121 10.5536 21.9293 10.3582 21.7657C10.1627 21.6021 10.0371 21.3701 10.007 21.117L10 21V17C10 16.7348 10.1054 16.4804 10.2929 16.2929C10.4804 16.1054 10.7348 16 11 16Z" fill="#2B7FFF"></path>
<path d="M13.5 4.67003C14.0732 4.99594 14.5763 5.43202 14.9803 5.95316C15.3843 6.4743 15.6813 7.0702 15.854 7.70657C16.0268 8.34293 16.072 9.00719 15.987 9.66109C15.902 10.315 15.6885 10.9456 15.3588 11.5167C15.0291 12.0877 14.5897 12.5879 14.0659 12.9885C13.5421 13.389 12.9442 13.682 12.3067 13.8505C11.6692 14.0191 11.0047 14.0598 10.3514 13.9705C9.69803 13.8812 9.06883 13.6635 8.49998 13.33C7.36094 12.6623 6.53227 11.5711 6.19479 10.2946C5.85731 9.01814 6.03842 7.66 6.6986 6.51656C7.35879 5.37312 8.44444 4.53723 9.71865 4.19129C10.9929 3.84535 12.3522 4.01745 13.5 4.67003ZM11 11C10.8775 11 10.7593 11.045 10.6678 11.1264C10.5763 11.2078 10.5178 11.3199 10.5035 11.4415L10.5 11.505C10.5001 11.6325 10.5489 11.755 10.6364 11.8477C10.7239 11.9404 10.8435 11.9961 10.9707 12.0036C11.0979 12.0111 11.2232 11.9697 11.3209 11.8879C11.4186 11.8061 11.4814 11.6901 11.4965 11.5635L11.5 11.5C11.5 11.3674 11.4473 11.2402 11.3535 11.1465C11.2598 11.0527 11.1326 11 11 11ZM11.5865 6.07203C11.2315 5.95795 10.8499 5.9569 10.4943 6.06904C10.1387 6.18117 9.82677 6.40096 9.60148 6.69803C9.52389 6.79932 9.48796 6.92644 9.50104 7.05336C9.51413 7.18027 9.57523 7.29739 9.67186 7.38072C9.76848 7.46405 9.8933 7.50729 10.0208 7.50158C10.1482 7.49588 10.2687 7.44166 10.3575 7.35003L10.3985 7.30203C10.4733 7.20344 10.5701 7.12357 10.6811 7.0687C10.792 7.01384 10.9142 6.98548 11.038 6.98586C11.1618 6.98624 11.2839 7.01534 11.3945 7.07089C11.5051 7.12643 11.6014 7.20689 11.6757 7.30594C11.7499 7.40499 11.8002 7.51992 11.8225 7.6417C11.8448 7.76347 11.8385 7.88876 11.8042 8.0077C11.7699 8.12665 11.7084 8.236 11.6246 8.32716C11.5409 8.41832 11.4371 8.48879 11.3215 8.53303C11.0687 8.62419 10.8521 8.79471 10.7042 9.01912C10.5563 9.24352 10.485 9.50975 10.501 9.77803C10.5088 9.90493 10.5646 10.0241 10.6571 10.1113C10.7496 10.1985 10.8719 10.2472 10.999 10.2474C11.1262 10.2477 11.2486 10.1995 11.3415 10.1127C11.4344 10.0258 11.4907 9.9069 11.499 9.78003V9.72153C11.4964 9.67443 11.5072 9.62756 11.5301 9.58633C11.553 9.5451 11.5871 9.51119 11.6285 9.48853L11.666 9.47153C12.0169 9.33955 12.318 9.10158 12.5275 8.79066C12.737 8.47975 12.8444 8.11132 12.835 7.73653C12.8248 7.36397 12.6992 7.00376 12.4756 6.70561C12.252 6.40746 11.9413 6.18608 11.5865 6.07203Z" fill="#2B7FFF"></path>
<path d="M15 20C15.2549 20.0003 15.5 20.0979 15.6854 20.2728C15.8707 20.4478 15.9822 20.687 15.9972 20.9414C16.0121 21.1958 15.9293 21.4464 15.7657 21.6418C15.6021 21.8373 15.3701 21.9629 15.117 21.993L15 22H6.99999C6.74511 21.9997 6.49996 21.9021 6.31462 21.7272C6.12929 21.5522 6.01776 21.313 6.00282 21.0586C5.98788 20.8042 6.07067 20.5536 6.23426 20.3582C6.39785 20.1627 6.62989 20.0371 6.88299 20.007L6.99999 20H15Z" fill="#2B7FFF"></path>
</g><defs>
<clipPath id="clip0_10_46">
<rect width="24" height="24" fill="white"></rect>
</clipPath>
</defs></svg></g></g></svg></g><g id="dark-icon"><svg xmlns="http://www.w3.org/2000/svg" version="1.1" xmlns:xlink="http://www.w3.org/1999/xlink" width="1000" height="1000"><g><g transform="matrix(41.666666666666664,0,0,41.666666666666664,0,0)"><svg xmlns="http://www.w3.org/2000/svg" width="24" height="24" viewBox="0 0 24 24" fill="none"><g clip-path="url(#clip0_11_59)">
<path d="M14.133 1.50204C14.2651 1.27213 14.4831 1.1041 14.7391 1.0349C14.9951 0.9657 15.268 1.001 15.498 1.13304C16.5881 1.75957 17.5351 2.60721 18.2781 3.62148C19.0211 4.63576 19.5438 5.79424 19.8125 7.02251C20.0811 8.25078 20.0899 9.52168 19.8383 10.7535C19.5866 11.9854 19.08 13.151 18.3511 14.1755C17.6221 15.1999 16.687 16.0606 15.6057 16.7021C14.5243 17.3437 13.3208 17.7519 12.0723 17.9007C10.8238 18.0495 9.55801 17.9354 8.35622 17.5659C7.15443 17.1964 6.04323 16.5795 5.094 15.755C4.99485 15.6689 4.91364 15.5641 4.85501 15.4465C4.79637 15.329 4.76146 15.2011 4.75227 15.07C4.74308 14.939 4.75978 14.8075 4.80143 14.6829C4.84308 14.5583 4.90885 14.4432 4.995 14.344C5.08114 14.2449 5.18598 14.1637 5.30351 14.105C5.42104 14.0464 5.54897 14.0115 5.67999 14.0023C5.81102 13.9931 5.94257 14.0098 6.06714 14.0515C6.1917 14.0931 6.30685 14.1589 6.406 14.245C7.14464 14.8866 8.00931 15.3666 8.94447 15.6541C9.87962 15.9416 10.8646 16.0304 11.8361 15.9146C12.8076 15.7989 13.7441 15.4812 14.5855 14.982C15.427 14.4828 16.1546 13.8131 16.7219 13.0159C17.2891 12.2188 17.6833 11.3118 17.8791 10.3532C18.075 9.39465 18.0682 8.40573 17.8591 7.44996C17.6501 6.49419 17.2434 5.59272 16.6652 4.80346C16.0871 4.01419 15.3502 3.3546 14.502 2.86704C14.2721 2.73493 14.1041 2.51692 14.0349 2.26094C13.9657 2.00497 14.001 1.73199 14.133 1.50204Z" fill="#51A2FF"></path>
<path d="M11 16C11.2449 16 11.4813 16.09 11.6644 16.2527C11.8474 16.4155 11.9643 16.6397 11.993 16.883L12 17V21C11.9997 21.2549 11.9021 21.5 11.7272 21.6854C11.5522 21.8707 11.313 21.9822 11.0586 21.9972C10.8042 22.0121 10.5536 21.9293 10.3582 21.7657C10.1627 21.6021 10.0371 21.3701 10.007 21.117L10 21V17C10 16.7348 10.1054 16.4804 10.2929 16.2929C10.4804 16.1054 10.7348 16 11 16Z" fill="#51A2FF"></path>
<path d="M13.5 4.67003C14.0732 4.99594 14.5763 5.43202 14.9803 5.95316C15.3843 6.4743 15.6813 7.0702 15.854 7.70657C16.0268 8.34293 16.072 9.00719 15.987 9.66109C15.902 10.315 15.6885 10.9456 15.3588 11.5167C15.0291 12.0877 14.5897 12.5879 14.0659 12.9885C13.5421 13.389 12.9442 13.682 12.3067 13.8505C11.6692 14.0191 11.0047 14.0598 10.3514 13.9705C9.69803 13.8812 9.06883 13.6635 8.49998 13.33C7.36094 12.6623 6.53227 11.5711 6.19479 10.2946C5.85731 9.01814 6.03842 7.66 6.6986 6.51656C7.35879 5.37312 8.44444 4.53723 9.71865 4.19129C10.9929 3.84535 12.3522 4.01745 13.5 4.67003ZM11 11C10.8775 11 10.7593 11.045 10.6678 11.1264C10.5763 11.2078 10.5178 11.3199 10.5035 11.4415L10.5 11.505C10.5001 11.6325 10.5489 11.755 10.6364 11.8477C10.7239 11.9404 10.8435 11.9961 10.9707 12.0036C11.0979 12.0111 11.2232 11.9697 11.3209 11.8879C11.4186 11.8061 11.4814 11.6901 11.4965 11.5635L11.5 11.5C11.5 11.3674 11.4473 11.2402 11.3535 11.1465C11.2598 11.0527 11.1326 11 11 11ZM11.5865 6.07203C11.2315 5.95795 10.8499 5.9569 10.4943 6.06904C10.1387 6.18117 9.82677 6.40096 9.60148 6.69803C9.52389 6.79932 9.48796 6.92644 9.50104 7.05336C9.51413 7.18027 9.57523 7.29739 9.67186 7.38072C9.76848 7.46405 9.8933 7.50729 10.0208 7.50158C10.1482 7.49588 10.2687 7.44166 10.3575 7.35003L10.3985 7.30203C10.4733 7.20344 10.5701 7.12357 10.6811 7.0687C10.792 7.01384 10.9142 6.98548 11.038 6.98586C11.1618 6.98624 11.2839 7.01534 11.3945 7.07089C11.5051 7.12643 11.6014 7.20689 11.6757 7.30594C11.7499 7.40499 11.8002 7.51992 11.8225 7.6417C11.8448 7.76347 11.8385 7.88876 11.8042 8.0077C11.7699 8.12665 11.7084 8.236 11.6246 8.32716C11.5409 8.41832 11.4371 8.48879 11.3215 8.53303C11.0687 8.62419 10.8521 8.79471 10.7042 9.01912C10.5563 9.24352 10.485 9.50975 10.501 9.77803C10.5088 9.90493 10.5646 10.0241 10.6571 10.1113C10.7496 10.1985 10.8719 10.2472 10.999 10.2474C11.1262 10.2477 11.2486 10.1995 11.3415 10.1127C11.4344 10.0258 11.4907 9.9069 11.499 9.78003V9.72153C11.4964 9.67443 11.5072 9.62756 11.5301 9.58633C11.553 9.5451 11.5871 9.51119 11.6285 9.48853L11.666 9.47153C12.0169 9.33955 12.318 9.10158 12.5275 8.79066C12.737 8.47975 12.8444 8.11132 12.835 7.73653C12.8248 7.36397 12.6992 7.00376 12.4756 6.70561C12.252 6.40746 11.9413 6.18608 11.5865 6.07203Z" fill="#51A2FF"></path>
<path d="M15 20C15.2549 20.0003 15.5 20.0979 15.6854 20.2728C15.8707 20.4478 15.9822 20.687 15.9972 20.9414C16.0121 21.1958 15.9293 21.4464 15.7657 21.6418C15.6021 21.8373 15.3701 21.9629 15.117 21.993L15 22H6.99999C6.74511 21.9997 6.49996 21.9021 6.31462 21.7272C6.12929 21.5522 6.01776 21.313 6.00282 21.0586C5.98788 20.8042 6.07067 20.5536 6.23426 20.3582C6.39785 20.1627 6.62989 20.0371 6.88299 20.007L6.99999 20H15Z" fill="#51A2FF"></path>
</g><defs>
<clipPath id="clip0_11_59">
<rect width="24" height="24" fill="white"></rect>
</clipPath>
</defs></svg></g></g></svg></g></svg>